<svg xmlns="http://www.w3.org/2000/svg" viewBox="0 0 1180 616" role="img" aria-labelledby="t d"><title id="t">A pick draws a window, not the canvas</title><desc id="d">One click renders a 19 x 19 attachment: a 13 x 13 readback window with a 3-cell halo around it, because an edge texel fits its plane from its neighbours and cleared neighbours would make a stroke pickable exactly where it is invisible. Two uniform fields carry the canvas into that window: origin says where its top-left sits, frame says which canvas the tiles were binned for.</desc><defs><marker id="a" markerWidth="9" markerHeight="9" refX="7" refY="3" orient="auto"><path d="M0,0 L7,3 L0,6" fill="#e4e4e7"/></marker></defs><style>text{font-family:system-ui,sans-serif;fill:#f4f4f6;font-size:13px}.h{font-size:20px;font-weight:700}.l{font-size:15px;font-weight:650}.s{font-size:13px;fill:#c9ccd6}.m{font-family:"DejaVu Sans Mono","Liberation Mono",monospace;font-size:12.5px;fill:#f4f4f6}.ar{fill:none;stroke:#e4e4e7;stroke-width:1.6;marker-end:url(#a)}.dash{fill:none;stroke:#e07a26;stroke-width:1.8;stroke-dasharray:7 5}</style><rect width="100%" height="100%" rx="4" fill="#111111"/><text class="h" xml:space="preserve" x="28.0" y="40.0" textLength="252.3" lengthAdjust="spacingAndGlyphs">361 texels, not 1.6 million</text><text class="l" xml:space="preserve" x="28.0" y="92.0" textLength="178.3" lengthAdjust="spacingAndGlyphs">the canvas · 1600 × 1000</text><rect x="28" y="110" width="320.0" height="200.0" rx="4" fill="#e4e4e7" fill-opacity="0.22"/><rect x="45.8" y="157.8" width="8" height="8" fill="#f9e08a"/><text class="s" xml:space="preserve" x="63.8" y="165.8" style="fill:#e8ac00" textLength="156.0" lengthAdjust="spacingAndGlyphs">cursor (109, 259) · 19 × 19</text><text class="s" xml:space="preserve" x="28.0" y="334.0" textLength="267.7" lengthAdjust="spacingAndGlyphs">the yellow square, at the scale of the canvas</text><text class="s" xml:space="preserve" x="28.0" y="356.0" textLength="224.4" lengthAdjust="spacingAndGlyphs">it is drawn on. That is the whole pick.</text><text class="l" xml:space="preserve" x="420.0" y="92.0" textLength="403.1" lengthAdjust="spacingAndGlyphs">the attachment · PickView { x: 100, y: 250, w: 19, h: 19 }</text><rect x="420.0" y="110.0" width="12.0" height="12.0" fill="#e4e4e7"/><rect x="433.0" y="110.0" width="12.0" height="12.0" fill="#e4e4e7"/><rect x="446.0" y="110.0" width="12.0" height="12.0" fill="#e4e4e7"/><rect x="459.0" y="110.0" width="12.0" height="12.0" fill="#e4e4e7"/><rect x="472.0" y="110.0" width="12.0" height="12.0" fill="#e4e4e7"/><rect x="485.0" y="110.0" width="12.0" height="12.0" fill="#e4e4e7"/><rect x="498.0" y="110.0" width="12.0" height="12.0" fill="#e4e4e7"/><rect x="511.0" y="110.0" width="12.0" height="12.0" fill="#e4e4e7"/><rect x="524.0" y="110.0" width="12.0" height="12.0" fill="#e4e4e7"/><rect x="537.0" y="110.0" width="12.0" height="12.0" fill="#e4e4e7"/><rect x="550.0" y="110.0" width="12.0" height="12.0" fill="#e4e4e7"/><rect x="563.0" y="110.0" width="12.0" height="12.0" fill="#e4e4e7"/><rect x="576.0" y="110.0" width="12.0" height="12.0" fill="#e4e4e7"/><rect x="589.0" y="110.0" width="12.0" height="12.0" fill="#e4e4e7"/><rect x="602.0" y="110.0" width="12.0" height="12.0" fill="#e4e4e7"/><rect x="615.0" y="110.0" width="12.0" height="12.0" fill="#e4e4e7"/><rect x="628.0" y="110.0" width="12.0" height="12.0" fill="#e4e4e7"/><rect x="641.0" y="110.0" width="12.0" height="12.0" fill="#e4e4e7"/><rect x="654.0" y="110.0" width="12.0" height="12.0" fill="#e4e4e7"/><rect x="420.0" y="123.0" width="12.0" height="12.0" fill="#e4e4e7"/><rect x="433.0" y="123.0" width="12.0" height="12.0" fill="#e4e4e7"/><rect x="446.0" y="123.0" width="12.0" height="12.0" fill="#e4e4e7"/><rect x="459.0" y="123.0" width="12.0" height="12.0" fill="#e4e4e7"/><rect x="472.0" y="123.0" width="12.0" height="12.0" fill="#e4e4e7"/><rect x="485.0" y="123.0" width="12.0" height="12.0" fill="#e4e4e7"/><rect x="498.0" y="123.0" width="12.0" height="12.0" fill="#e4e4e7"/><rect x="511.0" y="123.0" width="12.0" height="12.0" fill="#e4e4e7"/><rect x="524.0" y="123.0" width="12.0" height="12.0" fill="#e4e4e7"/><rect x="537.0" y="123.0" width="12.0" height="12.0" fill="#e4e4e7"/><rect x="550.0" y="123.0" width="12.0" height="12.0" fill="#e4e4e7"/><rect x="563.0" y="123.0" width="12.0" height="12.0" fill="#e4e4e7"/><rect x="576.0" y="123.0" width="12.0" height="12.0" fill="#e4e4e7"/><rect x="589.0" y="123.0" width="12.0" height="12.0" fill="#e4e4e7"/><rect x="602.0" y="123.0" width="12.0" height="12.0" fill="#e4e4e7"/><rect x="615.0" y="123.0" width="12.0" height="12.0" fill="#e4e4e7"/><rect x="628.0" y="123.0" width="12.0" height="12.0" fill="#e4e4e7"/><rect x="641.0" y="123.0" width="12.0" height="12.0" fill="#e4e4e7"/><rect x="654.0" y="123.0" width="12.0" height="12.0" fill="#e4e4e7"/><rect x="420.0" y="136.0" width="12.0" height="12.0" fill="#e4e4e7"/><rect x="433.0" y="136.0" width="12.0" height="12.0" fill="#e4e4e7"/><rect x="446.0" y="136.0" width="12.0" height="12.0" fill="#e4e4e7"/><rect x="459.0" y="136.0" width="12.0" height="12.0" fill="#e4e4e7"/><rect x="472.0" y="136.0" width="12.0" height="12.0" fill="#e4e4e7"/><rect x="485.0" y="136.0" width="12.0" height="12.0" fill="#e4e4e7"/><rect x="498.0" y="136.0" width="12.0" height="12.0" fill="#e4e4e7"/><rect x="511.0" y="136.0" width="12.0" height="12.0" fill="#e4e4e7"/><rect x="524.0" y="136.0" width="12.0" height="12.0" fill="#e4e4e7"/><rect x="537.0" y="136.0" width="12.0" height="12.0" fill="#e4e4e7"/><rect x="550.0" y="136.0" width="12.0" height="12.0" fill="#e4e4e7"/><rect x="563.0" y="136.0" width="12.0" height="12.0" fill="#e4e4e7"/><rect x="576.0" y="136.0" width="12.0" height="12.0" fill="#e4e4e7"/><rect x="589.0" y="136.0" width="12.0" height="12.0" fill="#e4e4e7"/><rect x="602.0" y="136.0" width="12.0" height="12.0" fill="#e4e4e7"/><rect x="615.0" y="136.0" width="12.0" height="12.0" fill="#e4e4e7"/><rect x="628.0" y="136.0" width="12.0" height="12.0" fill="#e4e4e7"/><rect x="641.0" y="136.0" width="12.0" height="12.0" fill="#e4e4e7"/><rect x="654.0" y="136.0" width="12.0" height="12.0" fill="#e4e4e7"/><rect x="420.0" y="149.0" width="12.0" height="12.0" fill="#e4e4e7"/><rect x="433.0" y="149.0" width="12.0" height="12.0" fill="#e4e4e7"/><rect x="446.0" y="149.0" width="12.0" height="12.0" fill="#e4e4e7"/><rect x="459.0" y="149.0" width="12.0" height="12.0" fill="#bdbfe8"/><rect x="472.0" y="149.0" width="12.0" height="12.0" fill="#bdbfe8"/><rect x="485.0" y="149.0" width="12.0" height="12.0" fill="#bdbfe8"/><rect x="498.0" y="149.0" width="12.0" height="12.0" fill="#bdbfe8"/><rect x="511.0" y="149.0" width="12.0" height="12.0" fill="#bdbfe8"/><rect x="524.0" y="149.0" width="12.0" height="12.0" fill="#bdbfe8"/><rect x="537.0" y="149.0" width="12.0" height="12.0" fill="#bdbfe8"/><rect x="550.0" y="149.0" width="12.0" height="12.0" fill="#bdbfe8"/><rect x="563.0" y="149.0" width="12.0" height="12.0" fill="#bdbfe8"/><rect x="576.0" y="149.0" width="12.0" height="12.0" fill="#bdbfe8"/><rect x="589.0" y="149.0" width="12.0" height="12.0" fill="#bdbfe8"/><rect x="602.0" y="149.0" width="12.0" height="12.0" fill="#bdbfe8"/><rect x="615.0" y="149.0" width="12.0" height="12.0" fill="#bdbfe8"/><rect x="628.0" y="149.0" width="12.0" height="12.0" fill="#e4e4e7"/><rect x="641.0" y="149.0" width="12.0" height="12.0" fill="#e4e4e7"/><rect x="654.0" y="149.0" width="12.0" height="12.0" fill="#e4e4e7"/><rect x="420.0" y="162.0" width="12.0" height="12.0" fill="#e4e4e7"/><rect x="433.0" y="162.0" width="12.0" height="12.0" fill="#e4e4e7"/><rect x="446.0" y="162.0" width="12.0" height="12.0" fill="#e4e4e7"/><rect x="459.0" y="162.0" width="12.0" height="12.0" fill="#bdbfe8"/><rect x="472.0" y="162.0" width="12.0" height="12.0" fill="#bdbfe8"/><rect x="485.0" y="162.0" width="12.0" height="12.0" fill="#bdbfe8"/><rect x="498.0" y="162.0" width="12.0" height="12.0" fill="#bdbfe8"/><rect x="511.0" y="162.0" width="12.0" height="12.0" fill="#bdbfe8"/><rect x="524.0" y="162.0" width="12.0" height="12.0" fill="#bdbfe8"/><rect x="537.0" y="162.0" width="12.0" height="12.0" fill="#bdbfe8"/><rect x="550.0" y="162.0" width="12.0" height="12.0" fill="#bdbfe8"/><rect x="563.0" y="162.0" width="12.0" height="12.0" fill="#bdbfe8"/><rect x="576.0" y="162.0" width="12.0" height="12.0" fill="#bdbfe8"/><rect x="589.0" y="162.0" width="12.0" height="12.0" fill="#bdbfe8"/><rect x="602.0" y="162.0" width="12.0" height="12.0" fill="#bdbfe8"/><rect x="615.0" y="162.0" width="12.0" height="12.0" fill="#bdbfe8"/><rect x="628.0" y="162.0" width="12.0" height="12.0" fill="#e4e4e7"/><rect x="641.0" y="162.0" width="12.0" height="12.0" fill="#e4e4e7"/><rect x="654.0" y="162.0" width="12.0" height="12.0" fill="#e4e4e7"/><rect x="420.0" y="175.0" width="12.0" height="12.0" fill="#e4e4e7"/><rect x="433.0" y="175.0" width="12.0" height="12.0" fill="#e4e4e7"/><rect x="446.0" y="175.0" width="12.0" height="12.0" fill="#e4e4e7"/><rect x="459.0" y="175.0" width="12.0" height="12.0" fill="#bdbfe8"/><rect x="472.0" y="175.0" width="12.0" height="12.0" fill="#bdbfe8"/><rect x="485.0" y="175.0" width="12.0" height="12.0" fill="#bdbfe8"/><rect x="498.0" y="175.0" width="12.0" height="12.0" fill="#bdbfe8"/><rect x="511.0" y="175.0" width="12.0" height="12.0" fill="#bdbfe8"/><rect x="524.0" y="175.0" width="12.0" height="12.0" fill="#bdbfe8"/><rect x="537.0" y="175.0" width="12.0" height="12.0" fill="#bdbfe8"/><rect x="550.0" y="175.0" width="12.0" height="12.0" fill="#bdbfe8"/><rect x="563.0" y="175.0" width="12.0" height="12.0" fill="#bdbfe8"/><rect x="576.0" y="175.0" width="12.0" height="12.0" fill="#bdbfe8"/><rect x="589.0" y="175.0" width="12.0" height="12.0" fill="#bdbfe8"/><rect x="602.0" y="175.0" width="12.0" height="12.0" fill="#bdbfe8"/><rect x="615.0" y="175.0" width="12.0" height="12.0" fill="#bdbfe8"/><rect x="628.0" y="175.0" width="12.0" height="12.0" fill="#e4e4e7"/><rect x="641.0" y="175.0" width="12.0" height="12.0" fill="#e4e4e7"/><rect x="654.0" y="175.0" width="12.0" height="12.0" fill="#e4e4e7"/><rect x="420.0" y="188.0" width="12.0" height="12.0" fill="#e4e4e7"/><rect x="433.0" y="188.0" width="12.0" height="12.0" fill="#e4e4e7"/><rect x="446.0" y="188.0" width="12.0" height="12.0" fill="#e4e4e7"/><rect x="459.0" y="188.0" width="12.0" height="12.0" fill="#bdbfe8"/><rect x="472.0" y="188.0" width="12.0" height="12.0" fill="#bdbfe8"/><rect x="485.0" y="188.0" width="12.0" height="12.0" fill="#bdbfe8"/><rect x="498.0" y="188.0" width="12.0" height="12.0" fill="#bdbfe8"/><rect x="511.0" y="188.0" width="12.0" height="12.0" fill="#bdbfe8"/><rect x="524.0" y="188.0" width="12.0" height="12.0" fill="#bdbfe8"/><rect x="537.0" y="188.0" width="12.0" height="12.0" fill="#bdbfe8"/><rect x="550.0" y="188.0" width="12.0" height="12.0" fill="#bdbfe8"/><rect x="563.0" y="188.0" width="12.0" height="12.0" fill="#bdbfe8"/><rect x="576.0" y="188.0" width="12.0" height="12.0" fill="#bdbfe8"/><rect x="589.0" y="188.0" width="12.0" height="12.0" fill="#bdbfe8"/><rect x="602.0" y="188.0" width="12.0" height="12.0" fill="#bdbfe8"/><rect x="615.0" y="188.0" width="12.0" height="12.0" fill="#bdbfe8"/><rect x="628.0" y="188.0" width="12.0" height="12.0" fill="#e4e4e7"/><rect x="641.0" y="188.0" width="12.0" height="12.0" fill="#e4e4e7"/><rect x="654.0" y="188.0" width="12.0" height="12.0" fill="#e4e4e7"/><rect x="420.0" y="201.0" width="12.0" height="12.0" fill="#e4e4e7"/><rect x="433.0" y="201.0" width="12.0" height="12.0" fill="#e4e4e7"/><rect x="446.0" y="201.0" width="12.0" height="12.0" fill="#e4e4e7"/><rect x="459.0" y="201.0" width="12.0" height="12.0" fill="#bdbfe8"/><rect x="472.0" y="201.0" width="12.0" height="12.0" fill="#bdbfe8"/><rect x="485.0" y="201.0" width="12.0" height="12.0" fill="#bdbfe8"/><rect x="498.0" y="201.0" width="12.0" height="12.0" fill="#bdbfe8"/><rect x="511.0" y="201.0" width="12.0" height="12.0" fill="#bdbfe8"/><rect x="524.0" y="201.0" width="12.0" height="12.0" fill="#bdbfe8"/><rect x="537.0" y="201.0" width="12.0" height="12.0" fill="#bdbfe8"/><rect x="550.0" y="201.0" width="12.0" height="12.0" fill="#bdbfe8"/><rect x="563.0" y="201.0" width="12.0" height="12.0" fill="#bdbfe8"/><rect x="576.0" y="201.0" width="12.0" height="12.0" fill="#bdbfe8"/><rect x="589.0" y="201.0" width="12.0" height="12.0" fill="#bdbfe8"/><rect x="602.0" y="201.0" width="12.0" height="12.0" fill="#bdbfe8"/><rect x="615.0" y="201.0" width="12.0" height="12.0" fill="#bdbfe8"/><rect x="628.0" y="201.0" width="12.0" height="12.0" fill="#e4e4e7"/><rect x="641.0" y="201.0" width="12.0" height="12.0" fill="#e4e4e7"/><rect x="654.0" y="201.0" width="12.0" height="12.0" fill="#e4e4e7"/><rect x="420.0" y="214.0" width="12.0" height="12.0" fill="#e4e4e7"/><rect x="433.0" y="214.0" width="12.0" height="12.0" fill="#e4e4e7"/><rect x="446.0" y="214.0" width="12.0" height="12.0" fill="#e4e4e7"/><rect x="459.0" y="214.0" width="12.0" height="12.0" fill="#bdbfe8"/><rect x="472.0" y="214.0" width="12.0" height="12.0" fill="#bdbfe8"/><rect x="485.0" y="214.0" width="12.0" height="12.0" fill="#bdbfe8"/><rect x="498.0" y="214.0" width="12.0" height="12.0" fill="#bdbfe8"/><rect x="511.0" y="214.0" width="12.0" height="12.0" fill="#bdbfe8"/><rect x="524.0" y="214.0" width="12.0" height="12.0" fill="#bdbfe8"/><rect x="537.0" y="214.0" width="12.0" height="12.0" fill="#bdbfe8"/><rect x="550.0" y="214.0" width="12.0" height="12.0" fill="#bdbfe8"/><rect x="563.0" y="214.0" width="12.0" height="12.0" fill="#bdbfe8"/><rect x="576.0" y="214.0" width="12.0" height="12.0" fill="#bdbfe8"/><rect x="589.0" y="214.0" width="12.0" height="12.0" fill="#bdbfe8"/><rect x="602.0" y="214.0" width="12.0" height="12.0" fill="#bdbfe8"/><rect x="615.0" y="214.0" width="12.0" height="12.0" fill="#bdbfe8"/><rect x="628.0" y="214.0" width="12.0" height="12.0" fill="#e4e4e7"/><rect x="641.0" y="214.0" width="12.0" height="12.0" fill="#e4e4e7"/><rect x="654.0" y="214.0" width="12.0" height="12.0" fill="#e4e4e7"/><rect x="420.0" y="227.0" width="12.0" height="12.0" fill="#e4e4e7"/><rect x="433.0" y="227.0" width="12.0" height="12.0" fill="#e4e4e7"/><rect x="446.0" y="227.0" width="12.0" height="12.0" fill="#e4e4e7"/><rect x="459.0" y="227.0" width="12.0" height="12.0" fill="#bdbfe8"/><rect x="472.0" y="227.0" width="12.0" height="12.0" fill="#bdbfe8"/><rect x="485.0" y="227.0" width="12.0" height="12.0" fill="#bdbfe8"/><rect x="498.0" y="227.0" width="12.0" height="12.0" fill="#bdbfe8"/><rect x="511.0" y="227.0" width="12.0" height="12.0" fill="#bdbfe8"/><rect x="524.0" y="227.0" width="12.0" height="12.0" fill="#bdbfe8"/><rect x="537.0" y="227.0" width="12.0" height="12.0" fill="#f9e08a"/><rect x="550.0" y="227.0" width="12.0" height="12.0" fill="#bdbfe8"/><rect x="563.0" y="227.0" width="12.0" height="12.0" fill="#bdbfe8"/><rect x="576.0" y="227.0" width="12.0" height="12.0" fill="#bdbfe8"/><rect x="589.0" y="227.0" width="12.0" height="12.0" fill="#bdbfe8"/><rect x="602.0" y="227.0" width="12.0" height="12.0" fill="#bdbfe8"/><rect x="615.0" y="227.0" width="12.0" height="12.0" fill="#bdbfe8"/><rect x="628.0" y="227.0" width="12.0" height="12.0" fill="#e4e4e7"/><rect x="641.0" y="227.0" width="12.0" height="12.0" fill="#e4e4e7"/><rect x="654.0" y="227.0" width="12.0" height="12.0" fill="#e4e4e7"/><rect x="420.0" y="240.0" width="12.0" height="12.0" fill="#e4e4e7"/><rect x="433.0" y="240.0" width="12.0" height="12.0" fill="#e4e4e7"/><rect x="446.0" y="240.0" width="12.0" height="12.0" fill="#e4e4e7"/><rect x="459.0" y="240.0" width="12.0" height="12.0" fill="#bdbfe8"/><rect x="472.0" y="240.0" width="12.0" height="12.0" fill="#bdbfe8"/><rect x="485.0" y="240.0" width="12.0" height="12.0" fill="#bdbfe8"/><rect x="498.0" y="240.0" width="12.0" height="12.0" fill="#bdbfe8"/><rect x="511.0" y="240.0" width="12.0" height="12.0" fill="#bdbfe8"/><rect x="524.0" y="240.0" width="12.0" height="12.0" fill="#bdbfe8"/><rect x="537.0" y="240.0" width="12.0" height="12.0" fill="#bdbfe8"/><rect x="550.0" y="240.0" width="12.0" height="12.0" fill="#bdbfe8"/><rect x="563.0" y="240.0" width="12.0" height="12.0" fill="#bdbfe8"/><rect x="576.0" y="240.0" width="12.0" height="12.0" fill="#bdbfe8"/><rect x="589.0" y="240.0" width="12.0" height="12.0" fill="#bdbfe8"/><rect x="602.0" y="240.0" width="12.0" height="12.0" fill="#bdbfe8"/><rect x="615.0" y="240.0" width="12.0" height="12.0" fill="#bdbfe8"/><rect x="628.0" y="240.0" width="12.0" height="12.0" fill="#e4e4e7"/><rect x="641.0" y="240.0" width="12.0" height="12.0" fill="#e4e4e7"/><rect x="654.0" y="240.0" width="12.0" height="12.0" fill="#e4e4e7"/><rect x="420.0" y="253.0" width="12.0" height="12.0" fill="#e4e4e7"/><rect x="433.0" y="253.0" width="12.0" height="12.0" fill="#e4e4e7"/><rect x="446.0" y="253.0" width="12.0" height="12.0" fill="#e4e4e7"/><rect x="459.0" y="253.0" width="12.0" height="12.0" fill="#bdbfe8"/><rect x="472.0" y="253.0" width="12.0" height="12.0" fill="#bdbfe8"/><rect x="485.0" y="253.0" width="12.0" height="12.0" fill="#bdbfe8"/><rect x="498.0" y="253.0" width="12.0" height="12.0" fill="#bdbfe8"/><rect x="511.0" y="253.0" width="12.0" height="12.0" fill="#bdbfe8"/><rect x="524.0" y="253.0" width="12.0" height="12.0" fill="#bdbfe8"/><rect x="537.0" y="253.0" width="12.0" height="12.0" fill="#bdbfe8"/><rect x="550.0" y="253.0" width="12.0" height="12.0" fill="#bdbfe8"/><rect x="563.0" y="253.0" width="12.0" height="12.0" fill="#bdbfe8"/><rect x="576.0" y="253.0" width="12.0" height="12.0" fill="#bdbfe8"/><rect x="589.0" y="253.0" width="12.0" height="12.0" fill="#bdbfe8"/><rect x="602.0" y="253.0" width="12.0" height="12.0" fill="#bdbfe8"/><rect x="615.0" y="253.0" width="12.0" height="12.0" fill="#bdbfe8"/><rect x="628.0" y="253.0" width="12.0" height="12.0" fill="#e4e4e7"/><rect x="641.0" y="253.0" width="12.0" height="12.0" fill="#e4e4e7"/><rect x="654.0" y="253.0" width="12.0" height="12.0" fill="#e4e4e7"/><rect x="420.0" y="266.0" width="12.0" height="12.0" fill="#e4e4e7"/><rect x="433.0" y="266.0" width="12.0" height="12.0" fill="#e4e4e7"/><rect x="446.0" y="266.0" width="12.0" height="12.0" fill="#e4e4e7"/><rect x="459.0" y="266.0" width="12.0" height="12.0" fill="#bdbfe8"/><rect x="472.0" y="266.0" width="12.0" height="12.0" fill="#bdbfe8"/><rect x="485.0" y="266.0" width="12.0" height="12.0" fill="#bdbfe8"/><rect x="498.0" y="266.0" width="12.0" height="12.0" fill="#bdbfe8"/><rect x="511.0" y="266.0" width="12.0" height="12.0" fill="#bdbfe8"/><rect x="524.0" y="266.0" width="12.0" height="12.0" fill="#bdbfe8"/><rect x="537.0" y="266.0" width="12.0" height="12.0" fill="#bdbfe8"/><rect x="550.0" y="266.0" width="12.0" height="12.0" fill="#bdbfe8"/><rect x="563.0" y="266.0" width="12.0" height="12.0" fill="#bdbfe8"/><rect x="576.0" y="266.0" width="12.0" height="12.0" fill="#bdbfe8"/><rect x="589.0" y="266.0" width="12.0" height="12.0" fill="#bdbfe8"/><rect x="602.0" y="266.0" width="12.0" height="12.0" fill="#bdbfe8"/><rect x="615.0" y="266.0" width="12.0" height="12.0" fill="#bdbfe8"/><rect x="628.0" y="266.0" width="12.0" height="12.0" fill="#e4e4e7"/><rect x="641.0" y="266.0" width="12.0" height="12.0" fill="#e4e4e7"/><rect x="654.0" y="266.0" width="12.0" height="12.0" fill="#e4e4e7"/><rect x="420.0" y="279.0" width="12.0" height="12.0" fill="#e4e4e7"/><rect x="433.0" y="279.0" width="12.0" height="12.0" fill="#e4e4e7"/><rect x="446.0" y="279.0" width="12.0" height="12.0" fill="#e4e4e7"/><rect x="459.0" y="279.0" width="12.0" height="12.0" fill="#bdbfe8"/><rect x="472.0" y="279.0" width="12.0" height="12.0" fill="#bdbfe8"/><rect x="485.0" y="279.0" width="12.0" height="12.0" fill="#bdbfe8"/><rect x="498.0" y="279.0" width="12.0" height="12.0" fill="#bdbfe8"/><rect x="511.0" y="279.0" width="12.0" height="12.0" fill="#bdbfe8"/><rect x="524.0" y="279.0" width="12.0" height="12.0" fill="#bdbfe8"/><rect x="537.0" y="279.0" width="12.0" height="12.0" fill="#bdbfe8"/><rect x="550.0" y="279.0" width="12.0" height="12.0" fill="#bdbfe8"/><rect x="563.0" y="279.0" width="12.0" height="12.0" fill="#bdbfe8"/><rect x="576.0" y="279.0" width="12.0" height="12.0" fill="#bdbfe8"/><rect x="589.0" y="279.0" width="12.0" height="12.0" fill="#bdbfe8"/><rect x="602.0" y="279.0" width="12.0" height="12.0" fill="#bdbfe8"/><rect x="615.0" y="279.0" width="12.0" height="12.0" fill="#bdbfe8"/><rect x="628.0" y="279.0" width="12.0" height="12.0" fill="#e4e4e7"/><rect x="641.0" y="279.0" width="12.0" height="12.0" fill="#e4e4e7"/><rect x="654.0" y="279.0" width="12.0" height="12.0" fill="#e4e4e7"/><rect x="420.0" y="292.0" width="12.0" height="12.0" fill="#e4e4e7"/><rect x="433.0" y="292.0" width="12.0" height="12.0" fill="#e4e4e7"/><rect x="446.0" y="292.0" width="12.0" height="12.0" fill="#e4e4e7"/><rect x="459.0" y="292.0" width="12.0" height="12.0" fill="#bdbfe8"/><rect x="472.0" y="292.0" width="12.0" height="12.0" fill="#bdbfe8"/><rect x="485.0" y="292.0" width="12.0" height="12.0" fill="#bdbfe8"/><rect x="498.0" y="292.0" width="12.0" height="12.0" fill="#bdbfe8"/><rect x="511.0" y="292.0" width="12.0" height="12.0" fill="#bdbfe8"/><rect x="524.0" y="292.0" width="12.0" height="12.0" fill="#bdbfe8"/><rect x="537.0" y="292.0" width="12.0" height="12.0" fill="#bdbfe8"/><rect x="550.0" y="292.0" width="12.0" height="12.0" fill="#bdbfe8"/><rect x="563.0" y="292.0" width="12.0" height="12.0" fill="#bdbfe8"/><rect x="576.0" y="292.0" width="12.0" height="12.0" fill="#bdbfe8"/><rect x="589.0" y="292.0" width="12.0" height="12.0" fill="#bdbfe8"/><rect x="602.0" y="292.0" width="12.0" height="12.0" fill="#bdbfe8"/><rect x="615.0" y="292.0" width="12.0" height="12.0" fill="#bdbfe8"/><rect x="628.0" y="292.0" width="12.0" height="12.0" fill="#e4e4e7"/><rect x="641.0" y="292.0" width="12.0" height="12.0" fill="#e4e4e7"/><rect x="654.0" y="292.0" width="12.0" height="12.0" fill="#e4e4e7"/><rect x="420.0" y="305.0" width="12.0" height="12.0" fill="#e4e4e7"/><rect x="433.0" y="305.0" width="12.0" height="12.0" fill="#e4e4e7"/><rect x="446.0" y="305.0" width="12.0" height="12.0" fill="#e4e4e7"/><rect x="459.0" y="305.0" width="12.0" height="12.0" fill="#bdbfe8"/><rect x="472.0" y="305.0" width="12.0" height="12.0" fill="#bdbfe8"/><rect x="485.0" y="305.0" width="12.0" height="12.0" fill="#bdbfe8"/><rect x="498.0" y="305.0" width="12.0" height="12.0" fill="#bdbfe8"/><rect x="511.0" y="305.0" width="12.0" height="12.0" fill="#bdbfe8"/><rect x="524.0" y="305.0" width="12.0" height="12.0" fill="#bdbfe8"/><rect x="537.0" y="305.0" width="12.0" height="12.0" fill="#bdbfe8"/><rect x="550.0" y="305.0" width="12.0" height="12.0" fill="#bdbfe8"/><rect x="563.0" y="305.0" width="12.0" height="12.0" fill="#bdbfe8"/><rect x="576.0" y="305.0" width="12.0" height="12.0" fill="#bdbfe8"/><rect x="589.0" y="305.0" width="12.0" height="12.0" fill="#bdbfe8"/><rect x="602.0" y="305.0" width="12.0" height="12.0" fill="#bdbfe8"/><rect x="615.0" y="305.0" width="12.0" height="12.0" fill="#bdbfe8"/><rect x="628.0" y="305.0" width="12.0" height="12.0" fill="#e4e4e7"/><rect x="641.0" y="305.0" width="12.0" height="12.0" fill="#e4e4e7"/><rect x="654.0" y="305.0" width="12.0" height="12.0" fill="#e4e4e7"/><rect x="420.0" y="318.0" width="12.0" height="12.0" fill="#e4e4e7"/><rect x="433.0" y="318.0" width="12.0" height="12.0" fill="#e4e4e7"/><rect x="446.0" y="318.0" width="12.0" height="12.0" fill="#e4e4e7"/><rect x="459.0" y="318.0" width="12.0" height="12.0" fill="#e4e4e7"/><rect x="472.0" y="318.0" width="12.0" height="12.0" fill="#e4e4e7"/><rect x="485.0" y="318.0" width="12.0" height="12.0" fill="#e4e4e7"/><rect x="498.0" y="318.0" width="12.0" height="12.0" fill="#e4e4e7"/><rect x="511.0" y="318.0" width="12.0" height="12.0" fill="#e4e4e7"/><rect x="524.0" y="318.0" width="12.0" height="12.0" fill="#e4e4e7"/><rect x="537.0" y="318.0" width="12.0" height="12.0" fill="#e4e4e7"/><rect x="550.0" y="318.0" width="12.0" height="12.0" fill="#e4e4e7"/><rect x="563.0" y="318.0" width="12.0" height="12.0" fill="#e4e4e7"/><rect x="576.0" y="318.0" width="12.0" height="12.0" fill="#e4e4e7"/><rect x="589.0" y="318.0" width="12.0" height="12.0" fill="#e4e4e7"/><rect x="602.0" y="318.0" width="12.0" height="12.0" fill="#e4e4e7"/><rect x="615.0" y="318.0" width="12.0" height="12.0" fill="#e4e4e7"/><rect x="628.0" y="318.0" width="12.0" height="12.0" fill="#e4e4e7"/><rect x="641.0" y="318.0" width="12.0" height="12.0" fill="#e4e4e7"/><rect x="654.0" y="318.0" width="12.0" height="12.0" fill="#e4e4e7"/><rect x="420.0" y="331.0" width="12.0" height="12.0" fill="#e4e4e7"/><rect x="433.0" y="331.0" width="12.0" height="12.0" fill="#e4e4e7"/><rect x="446.0" y="331.0" width="12.0" height="12.0" fill="#e4e4e7"/><rect x="459.0" y="331.0" width="12.0" height="12.0" fill="#e4e4e7"/><rect x="472.0" y="331.0" width="12.0" height="12.0" fill="#e4e4e7"/><rect x="485.0" y="331.0" width="12.0" height="12.0" fill="#e4e4e7"/><rect x="498.0" y="331.0" width="12.0" height="12.0" fill="#e4e4e7"/><rect x="511.0" y="331.0" width="12.0" height="12.0" fill="#e4e4e7"/><rect x="524.0" y="331.0" width="12.0" height="12.0" fill="#e4e4e7"/><rect x="537.0" y="331.0" width="12.0" height="12.0" fill="#e4e4e7"/><rect x="550.0" y="331.0" width="12.0" height="12.0" fill="#e4e4e7"/><rect x="563.0" y="331.0" width="12.0" height="12.0" fill="#e4e4e7"/><rect x="576.0" y="331.0" width="12.0" height="12.0" fill="#e4e4e7"/><rect x="589.0" y="331.0" width="12.0" height="12.0" fill="#e4e4e7"/><rect x="602.0" y="331.0" width="12.0" height="12.0" fill="#e4e4e7"/><rect x="615.0" y="331.0" width="12.0" height="12.0" fill="#e4e4e7"/><rect x="628.0" y="331.0" width="12.0" height="12.0" fill="#e4e4e7"/><rect x="641.0" y="331.0" width="12.0" height="12.0" fill="#e4e4e7"/><rect x="654.0" y="331.0" width="12.0" height="12.0" fill="#e4e4e7"/><rect x="420.0" y="344.0" width="12.0" height="12.0" fill="#e4e4e7"/><rect x="433.0" y="344.0" width="12.0" height="12.0" fill="#e4e4e7"/><rect x="446.0" y="344.0" width="12.0" height="12.0" fill="#e4e4e7"/><rect x="459.0" y="344.0" width="12.0" height="12.0" fill="#e4e4e7"/><rect x="472.0" y="344.0" width="12.0" height="12.0" fill="#e4e4e7"/><rect x="485.0" y="344.0" width="12.0" height="12.0" fill="#e4e4e7"/><rect x="498.0" y="344.0" width="12.0" height="12.0" fill="#e4e4e7"/><rect x="511.0" y="344.0" width="12.0" height="12.0" fill="#e4e4e7"/><rect x="524.0" y="344.0" width="12.0" height="12.0" fill="#e4e4e7"/><rect x="537.0" y="344.0" width="12.0" height="12.0" fill="#e4e4e7"/><rect x="550.0" y="344.0" width="12.0" height="12.0" fill="#e4e4e7"/><rect x="563.0" y="344.0" width="12.0" height="12.0" fill="#e4e4e7"/><rect x="576.0" y="344.0" width="12.0" height="12.0" fill="#e4e4e7"/><rect x="589.0" y="344.0" width="12.0" height="12.0" fill="#e4e4e7"/><rect x="602.0" y="344.0" width="12.0" height="12.0" fill="#e4e4e7"/><rect x="615.0" y="344.0" width="12.0" height="12.0" fill="#e4e4e7"/><rect x="628.0" y="344.0" width="12.0" height="12.0" fill="#e4e4e7"/><rect x="641.0" y="344.0" width="12.0" height="12.0" fill="#e4e4e7"/><rect x="654.0" y="344.0" width="12.0" height="12.0" fill="#e4e4e7"/><text class="s" xml:space="preserve" x="28.0" y="396.0" textLength="275.3" lengthAdjust="spacingAndGlyphs">pale · PICK_HALO = 3, rendered, never copied</text><text class="s" xml:space="preserve" x="28.0" y="418.0" style="fill:#bdbfe8" textLength="294.3" lengthAdjust="spacingAndGlyphs">lavender · the window, 2 × PICK_RADIUS + 1 = 13</text><text class="s" xml:space="preserve" x="28.0" y="440.0" style="fill:#e8ac00" textLength="143.7" lengthAdjust="spacingAndGlyphs">yellow · the cursor texel</text><rect data-box="0" x="714.0" y="110.0" width="386.0" height="143.0" rx="4" fill="#e4e4e7" stroke="#e4e4e7" stroke-width="0"/><text class="l" xml:space="preserve" x="726.0" y="134.0" style="fill:#111111" data-box="0" textLength="185.2" lengthAdjust="spacingAndGlyphs">what write_pick changes</text><text class="m" xml:space="preserve" x="726.0" y="158.0" style="fill:#111111" data-box="0" textLength="255.9" lengthAdjust="spacingAndGlyphs">mvp′ = clip_transform(frame) × mvp</text><text class="m" xml:space="preserve" x="726.0" y="178.0" style="fill:#111111" data-box="0" textLength="143.0" lengthAdjust="spacingAndGlyphs">vp_w, vp_h = 19, 19</text><text class="m" xml:space="preserve" x="726.0" y="198.0" style="fill:#111111" data-box="0" textLength="143.0" lengthAdjust="spacingAndGlyphs">origin = (100, 250)</text><text class="m" xml:space="preserve" x="726.0" y="218.0" style="fill:#111111" data-box="0" textLength="158.0" lengthAdjust="spacingAndGlyphs">frame  = (1600, 1000)</text><text class="m" xml:space="preserve" x="726.0" y="238.0" style="fill:#111111" data-box="0" textLength="270.9" lengthAdjust="spacingAndGlyphs">proj_y × 1000/19 · ortho_h ÷ 1000/19</text><rect data-box="1" x="714.0" y="300.0" width="386.0" height="103.0" rx="4" fill="#e4e4e7" stroke="#e4e4e7" stroke-width="0"/><text class="l" xml:space="preserve" x="726.0" y="324.0" style="fill:#111111" data-box="1" textLength="193.7" lengthAdjust="spacingAndGlyphs">and which pass sees what</text><text class="s" xml:space="preserve" x="726.0" y="348.0" style="fill:#455b6b" data-box="1" textLength="255.6" lengthAdjust="spacingAndGlyphs">physical ID pass · no scissor, halo included</text><text class="s" xml:space="preserve" x="726.0" y="368.0" style="fill:#455b6b" data-box="1" textLength="244.8" lengthAdjust="spacingAndGlyphs">ink ID pass · set_scissor_rect(3, 3, 13, 13)</text><text class="m" xml:space="preserve" x="726.0" y="388.0" style="fill:#111111" data-box="1" textLength="263.4" lengthAdjust="spacingAndGlyphs">copy_window · ids only, 8 B a texel</text><rect data-box="2" x="28.0" y="470.0" width="556.0" height="83.0" rx="4" fill="#fa9ebc" stroke="#fa9ebc" stroke-width="0"/><text class="l" xml:space="preserve" x="40.0" y="494.0" style="fill:#111111" data-box="2" textLength="102.2" lengthAdjust="spacingAndGlyphs">Drop the halo</text><text class="s" xml:space="preserve" x="40.0" y="518.0" style="fill:#455b6b" data-box="2" textLength="317.1" lengthAdjust="spacingAndGlyphs">an edge texel fits its plane from cleared neighbours,</text><text class="s" xml:space="preserve" x="40.0" y="538.0" style="fill:#455b6b" data-box="2" textLength="297.5" lengthAdjust="spacingAndGlyphs">so a stroke is pickable exactly where it is invisible</text><rect data-box="3" x="614.0" y="470.0" width="538.0" height="83.0" rx="4" fill="#fa9ebc" stroke="#fa9ebc" stroke-width="0"/><text class="l" xml:space="preserve" x="626.0" y="494.0" style="fill:#111111" data-box="3" textLength="84.9" lengthAdjust="spacingAndGlyphs">Drop origin</text><text class="s" xml:space="preserve" x="626.0" y="518.0" style="fill:#455b6b" data-box="3" textLength="288.7" lengthAdjust="spacingAndGlyphs">the axis is looked up in tile (0, 0)'s list, and ink is</text><text class="s" xml:space="preserve" x="626.0" y="538.0" style="fill:#455b6b" data-box="3" textLength="300.8" lengthAdjust="spacingAndGlyphs">judged against triangles elsewhere on the screen</text><text class="s" xml:space="preserve" x="28.0" y="600.0" style="fill:#e8ac00" textLength="717.0" lengthAdjust="spacingAndGlyphs">20 bytes a texel: ids 8 · depth 4 · metadata 8. The window costs 7 KB; the same target at canvas size would cost 32 MB.</text></svg>
